<?xml version="1.0" encoding="UTF-8"?><svg id="Object" xmlns="http://www.w3.org/2000/svg" viewBox="0 0 763.89 763.9"><defs><style>.cls-1{stroke:#fff;stroke-miterlimit:10;}</style></defs><path class="cls-1" d="M763.39,381.95c0-51.19-20.66-99.56-55.47-135.04-.48-49.71-20.07-98.49-56.24-134.67-36.05-36.05-83.89-56.02-134.82-56.37C481.37,21.11,433.06.5,381.95.5c-51.13.02-99.46,20.64-134.95,55.38-50.93.35-98.75,20.32-134.77,56.36-36.19,36.2-55.81,85.01-56.3,134.74C21.13,282.46.5,330.8.5,381.95s20.64,99.56,55.46,135.07c.5,49.7,20.09,98.48,56.27,134.67,36.05,36.03,83.87,56.01,134.79,56.37,35.49,34.75,83.81,55.34,134.96,55.34s99.48-20.6,134.96-55.37c50.9-.37,98.71-20.32,134.74-56.34,36.18-36.21,55.8-85.02,56.28-134.74,34.8-35.49,55.43-83.84,55.43-135.01ZM689.81,311.55c-.12.33-.18.69-.18,1.02-16.19,40.53-16.13,92.64.23,139.83.01.07.04.12.06.19,5.34,14.82,8.56,30.07,9.98,45.39-1.9,2.1-3.86,4.16-5.88,6.17-.81.81-1.65,1.58-2.48,2.37-.83-17.13-4.12-34.26-10.09-50.81-16.92-48.74-17.15-103.12-.49-145.77,6.17-17.19,9.51-34.94,10.32-52.64,2.96,2.88,5.82,5.85,8.57,8.92-1.44,15.29-4.68,30.53-10.04,45.33ZM706.29,273.87c24.05,30.24,38.03,68.19,38.03,108.09s-13.36,77.95-37.93,108.4c-1.74-13.43-4.91-26.78-9.57-39.81-.06-.23-.14-.46-.25-.69-15.94-46.1-15.83-96.94.32-136.08.19-.45.26-.91.23-1.34,4.44-12.63,7.45-25.56,9.16-38.57ZM700.72,514c-2.96,2.92-6.01,5.76-9.17,8.49.17-4.02.2-8.04.09-12.07,1.49-1.39,2.98-2.79,4.42-4.24,1.44-1.44,2.82-2.93,4.2-4.41.29,4.08.44,8.15.46,12.23ZM649.43,549.88c-.33.15-.61.35-.85.59-40.16,17.25-76.99,54.17-98.76,99.1-.01,0-.02.04-.03.05-6.71,14.28-15.23,27.37-25.06,39.22-2.84.14-5.68.21-8.54.21-1.11,0-2.23-.05-3.34-.07,11.62-12.87,21.24-27.25,28.61-42.82,22.72-46.7,60.86-85.34,102.98-103.76,16.43-7.79,31.3-17.69,44.39-29.42.05,4-.04,7.98-.26,11.96-11.83,9.79-24.9,18.27-39.15,24.95ZM687.73,534.88c-4.37,38.38-21.32,75.09-49.53,103.29-28.34,28.36-64.55,45.67-103.48,49.85,8.26-10.72,15.45-22.38,21.36-34.88.14-.22.26-.46.35-.73,21.31-43.83,57.35-79.7,96.45-95.99.44-.18.81-.44,1.1-.77,12.08-5.79,23.35-12.8,33.75-20.79ZM513.89,700.86c-4.11-.04-8.2-.21-12.27-.51,1.69-1.57,3.38-3.14,5.01-4.78,1.23-1.23,2.42-2.51,3.61-3.77,1.99.07,3.97.13,5.96.13s4.08-.08,6.11-.15c-2.71,3.13-5.52,6.15-8.43,9.08ZM452.37,689.86c-.33-.11-.66-.18-.99-.18-20.09-8.03-42.6-12.12-66.96-12.12s-49.67,4.25-72.92,12.31c-.06.03-.12.04-.19.07-14.45,5.21-29.41,8.54-44.64,10.04-3.04-2.7-5.98-5.5-8.84-8.4,17.16-.91,33.99-4.25,50.07-10.01,24.88-8.6,51.07-12.93,76.45-12.93s48.62,4.11,69.75,12.4c17.17,6.08,34.73,9.61,52.31,10.58-.61.63-1.2,1.28-1.83,1.91-2.23,2.24-4.53,4.39-6.86,6.49-15.48-1.48-30.68-4.86-45.37-10.16ZM490.2,706.4c-30.6,24.55-68.36,37.92-108.22,37.92s-77.38-13.96-107.69-37.98c13.32-1.8,26.4-4.97,39.11-9.51.23-.06.44-.14.65-.24,22.41-7.75,46.74-11.85,70.38-11.85s46.13,4.1,65.72,12.19c.34.14.69.21,1.05.24.11.02.23.02.35.03,12.57,4.41,25.51,7.48,38.66,9.21ZM250.04,700.88c-2.93-2.96-5.78-6.02-8.51-9.18,2.28.09,4.56.17,6.85.17,1.9,0,3.79-.06,5.68-.12,2.83,2.97,5.75,5.83,8.77,8.59-4.24.33-8.51.51-12.79.55ZM214.02,649.45c-.14-.29-.32-.55-.51-.77-17.28-40.22-54.23-77.08-99.15-98.8-.01-.01-.03-.01-.04-.02-14.1-6.63-27.04-15.02-38.77-24.71-.23-4.01-.33-8.03-.29-12.07,12.56,11.34,26.81,20.98,42.51,28.39,46.71,22.74,85.45,61.1,103.72,103,7.78,16.49,17.96,31.39,29.91,44.46-1.01.02-2.01.06-3.01.06-3.11,0-6.21-.1-9.29-.26-9.84-11.87-18.36-24.98-25.06-39.29ZM229.12,687.9c-39.04-4.29-75.21-21.54-103.4-49.73-28.02-28-44.87-64.61-49.3-103.04,10.6,8.12,22.11,15.21,34.44,21.04.19.1.38.2.59.28,43.81,21.24,79.69,57.28,96.01,96.42.18.4.42.75.7,1.03,5.83,12.17,12.89,23.53,20.94,34ZM63.66,501.5c2.83,3.07,5.76,6.05,8.81,8.92-.1,4.1-.06,8.19.12,12.28-3.24-2.79-6.38-5.69-9.41-8.68.03-4.17.18-8.34.49-12.51ZM74.05,452.38c.11-.32.17-.64.18-.96,16.24-40.62,16.19-92.79-.22-139.93,0-.02-.02-.04-.02-.04-5.32-14.76-8.54-29.93-9.97-45.17,2.67-2.97,5.45-5.86,8.34-8.65.84,16.97,4.1,33.92,9.98,50.32,16.95,49.13,17.2,103.65.52,146.2-6.15,17.11-9.48,34.79-10.3,52.42-2.96-2.87-5.8-5.84-8.54-8.9,1.44-15.27,4.68-30.49,10.02-45.27ZM57.59,490.01c-24.04-30.23-38.01-68.18-38.01-108.06s13.78-77.85,37.98-108.04c1.75,13.36,4.91,26.63,9.55,39.59.06.2.12.38.2.55,15.97,46.04,15.85,96.9-.3,136.07-.18.44-.25.87-.25,1.29-4.45,12.64-7.46,25.58-9.17,38.59ZM63.17,249.94c2.96-2.93,6.02-5.77,9.19-8.5-.17,4.16-.2,8.32-.08,12.49-2.97,2.82-5.84,5.72-8.6,8.71-.32-4.24-.48-8.47-.5-12.7ZM114.46,214.05c.32-.15.58-.33.81-.54,40.15-17.22,76.99-54.16,98.79-99.17,6.65-14.15,15.08-27.13,24.8-38.9,3.22-.17,6.45-.28,9.7-.28.75,0,1.49.04,2.24.05-11.59,12.86-21.18,27.24-28.49,42.85-22.07,45.35-61.5,85.37-102.84,103.43-16.51,7.87-31.37,17.99-44.39,29.79-.06-4.11.03-8.2.26-12.29,11.83-9.78,24.88-18.26,39.12-24.94ZM76.19,229.03c4.38-38.38,21.33-75.11,49.54-103.3,27.99-27.98,64.09-45.13,103.2-49.45-7.99,10.41-14.99,21.69-20.77,33.78-.42.49-.72,1.08-.84,1.75-21.33,43.74-57.28,79.47-96.25,95.69-.43.17-.79.42-1.07.73-12.1,5.79-23.38,12.81-33.8,20.81ZM250.03,63.06c4.1.04,8.19.21,12.26.52-1.69,1.57-3.38,3.15-5.03,4.79-1.32,1.32-2.59,2.68-3.87,4.03-1.61-.04-3.23-.1-4.84-.1-2.42,0-4.83.08-7.23.17,2.8-3.24,5.7-6.38,8.7-9.41ZM311.54,74.08c.34.1.67.18,1,.18,20.05,8.04,42.55,12.1,66.88,12.1s49.76-4.26,73.05-12.34c14.48-5.23,29.46-8.58,44.73-10.08,3.03,2.69,5.96,5.48,8.81,8.38-17.25.92-34.18,4.31-50.35,10.12-24.13,8.36-50.43,12.58-75.98,12.58s-49.14-4.01-69.9-12.14c-17.27-6.12-34.96-9.52-52.53-10.37.68-.7,1.34-1.43,2.04-2.12,2.24-2.24,4.54-4.4,6.88-6.5,15.49,1.48,30.69,4.87,45.37,10.18ZM273.72,57.52c30.61-24.54,68.37-37.91,108.23-37.91h.08c39.54,0,77.29,13.96,107.58,37.98-13.03,1.76-25.84,4.82-38.28,9.21-.66.04-1.31.26-1.87.67-22.34,7.66-46.53,11.71-70.03,11.71s-46.09-4.09-65.64-12.17c-.44-.17-.94-.26-1.32-.24-12.6-4.43-25.56-7.51-38.74-9.25ZM513.84,63.05c2.92,2.95,5.76,6,8.49,9.16-2.27-.09-4.54-.17-6.82-.17-1.91,0-3.81.06-5.71.12-2.82-2.96-5.74-5.81-8.75-8.56,4.24-.33,8.51-.51,12.79-.55ZM549.85,114.46c.16.34.36.62.61.87,17.24,40.17,54.17,76.99,99.13,98.79,14.08,6.61,27,14.99,38.72,24.65.23,4,.33,8.01.29,12.02-12.62-11.39-26.94-21.06-42.72-28.48-46.44-22.49-85.04-60.76-103.43-102.73-7.8-16.55-18.01-31.49-29.99-44.59,1.02-.02,2.03-.07,3.04-.07,3.1,0,6.19.09,9.27.26,9.84,11.87,18.36,24.98,25.07,39.29ZM534.73,76c39.05,4.28,75.24,21.54,103.44,49.73,28,27.98,44.84,64.6,49.26,103.08-10.32-7.89-21.48-14.83-33.44-20.56-.55-.53-1.26-.88-2.04-.98-43.62-21.34-79.28-57.26-95.5-96.22-.19-.47-.46-.83-.8-1.13-5.82-12.14-12.87-23.47-20.92-33.92ZM688.5,254.63c-.57,18.24-3.85,36.56-10.21,54.27-16.86,43.15-16.69,98.39.47,147.79,6.17,17.11,9.39,34.82,9.99,52.51-13.35,12.31-28.63,22.58-45.45,30.56-42.37,18.54-81.4,57.84-104.42,105.17-7.63,16.11-17.66,30.86-29.83,43.97-18.11-.74-36.22-4.27-53.88-10.52-21.01-8.23-45.49-12.59-70.8-12.59s-52.61,4.52-77.42,13.1c-16.61,5.95-33.98,9.29-51.7,9.98-12.49-13.28-23.12-28.54-31.14-45.53-18.47-42.34-57.75-81.38-105.12-104.45-16.22-7.65-30.84-17.76-43.63-29.64.58-18.17,3.85-36.4,10.18-54.03,16.87-43.04,16.69-98.43-.48-148.22-6.08-16.94-9.27-34.48-9.89-51.99,13.21-12.25,28.41-22.74,45.45-30.87,41.73-18.24,81.7-58.4,104.29-104.84,7.54-16.1,17.53-30.86,29.69-43.98,18.41.62,36.62,4.05,54.14,10.28,20.64,8.07,45.17,12.33,70.94,12.33s52.87-4.4,76.95-12.74c16.74-6.02,34.19-9.4,51.97-10.09,12.52,13.32,23.18,28.61,31.22,45.66,18.6,42.45,57.78,81.39,104.84,104.17,16.3,7.67,30.98,17.81,43.83,29.74ZM691.39,253.44c.1-4.09.06-8.16-.12-12.23,3.25,2.79,6.39,5.69,9.43,8.7-.03,4.16-.18,8.31-.48,12.47-2.83-3.08-5.78-6.06-8.83-8.94ZM646.6,117.31c33.06,33.07,51.65,77.08,53.86,122.41-3.19-2.92-6.48-5.72-9.87-8.43-3.97-40.14-21.23-78.46-50.38-107.6-29.36-29.35-67.22-47.07-108.03-50.87-2.65-3.3-5.39-6.51-8.24-9.61,46.35,2.06,89.63,21.08,122.66,54.1ZM506.49,56.06c-4.32.2-8.62.57-12.91,1.05-31.16-25.52-70.41-40.37-111.56-40.37h-.07c-41.48,0-80.74,14.2-112.25,40.32-4.09-.45-8.19-.8-12.31-.99,33.6-30.43,77.84-48.37,124.56-48.39,46.72,0,90.94,17.94,124.54,48.38ZM117.3,117.31c33-33.02,76.28-52.03,122.63-54.09-2.93,3.19-5.75,6.49-8.47,9.89-40.23,3.85-78.41,21.23-107.77,50.58-29.36,29.35-46.76,67.82-50.67,107.87-3.29,2.64-6.5,5.36-9.6,8.2,2.21-45.34,20.81-89.37,53.88-122.45ZM7.68,381.95c0-46.78,17.98-91.05,48.49-124.66.19,4.26.53,8.52,1,12.78-25.71,31.17-40.46,70.39-40.46,111.88s14.89,81.01,40.43,112.09c-.46,4.2-.8,8.39-.99,12.6-30.49-33.62-48.47-77.92-48.47-124.69ZM117.3,646.62c-33.08-33.09-51.68-77.12-53.88-122.46,3.18,2.91,6.47,5.71,9.85,8.42,3.97,40.13,21.25,78.47,50.42,107.63,29.35,29.34,67.2,47.05,107.98,50.86,2.66,3.31,5.4,6.53,8.26,9.64-46.34-2.07-89.61-21.08-122.63-54.09ZM257.4,707.87c4.32-.2,8.62-.57,12.89-1.06,31.17,25.52,70.47,40.38,111.68,40.38s80.74-14.22,112.24-40.33c4.09.45,8.2.8,12.32.99-33.59,30.43-77.83,48.37-124.56,48.37s-90.98-17.93-124.57-48.35ZM646.6,646.62c-33.01,33-76.28,52-122.63,54.07,2.82-3.07,5.53-6.25,8.16-9.51,40.69-3.69,78.6-21.44,108.11-50.97,29.36-29.36,46.75-67.82,50.66-107.85,3.29-2.64,6.49-5.36,9.59-8.19-2.21,45.33-20.81,89.37-53.88,122.45ZM706.77,494.41c26.17-31.37,40.42-70.74,40.42-112.46s-14.91-81.04-40.46-112.12c.46-4.18.8-8.37.99-12.56,30.5,33.61,48.48,77.9,48.48,124.68s-17.98,91.08-48.48,124.69c-.18-4.08-.51-8.16-.95-12.23Z"/></svg>